PathFileType	4	(X/Y/Z)	D:/ViconDB/Teaching_2017/Workshops/171025_A1_Demo01/Demo/171025_Guy_ROM_body_01.trc
DataRate	CameraRate	NumFrames	NumMarkers	Units	OrigDataRate	OrigDataStartFrame	OrigNumFrames
120.000000	120.000000	4	130	mm	120.000000	46	120
Frame#	Time	System			Vantage_5_2106396			Vantage_5_2106443			Vantage_5_2106435			Vantage_5_2106735			Vantage_5_2106428			Vantage_5_2106437			Vantage_5_2106434			Vantage_5_2106460			Vantage_5_2106228			Vantage_5_2106436			Vantage_5_2106467			Unlabeled_Markers			Labeling			Hips			Spine			Head			Head_End			LeftShoulder			LeftArm			LeftForeArm			LeftHand			LeftHandThumbEnd			LeftHandEnd			RightShoulder			RightArm			RightForeArm			RightHand			RightHandThumbEnd			RightHandEnd			LeftUpLeg			LeftLeg			LeftFoot			LeftToeBase			LeftToeEnd			RightUpLeg			RightLeg			RightFoot			RightToeBase			RightToeEnd			ARIEL			LFHD			RFHD			LBHD			RBHD			C7			T10			CLAV			STRN			LBSH			LFSH			LUPA			LELB			LIEL			LWRE			LOWR			LIWR			LOHAND			LIHAND			RBSH			RFSH			RUPA			RELB			RIEL			RWRE			ROWR			RIWR			ROHAND			RIHAND			LFWT			LMWT			LBWT			LHIP			LKNE			LKNI			LSHN			LANK			LHEL			LMT5			LMT1			LTOE			RFWT			RMWT			RBWT			RHIP			RKNE			RKNI			RSHN			RANK			RHEL			RMT5			RMT1			RTOE			Solving			Hips			Spine			Spine1			Spine2			Spine3			Neck			Head			HeadEnd			RightShoulder			RightArm			RightForeArm			RightForeArmRoll			RightHand			RightHandEnd			R_FingersEnd			RightHandThumb1			RightHandThumb2			LeftShoulder			LeftArm			LeftForeArm			LeftForeArmRoll			LeftHand			LeftHandEnd			L_FingersEnd			LeftHandThumb1			LeftHandThumb2			RightUpLeg			RightLeg			RightFoot			RightToeBase			RightToeBaseEnd			LeftUpLeg			LeftLeg			LeftFoot			LeftToeBase			LeftToeBaseEnd			
		X0	Y0	Z0	X1	Y1	Z1	X2	Y2	Z2	X3	Y3	Z3	X4	Y4	Z4	X5	Y5	Z5	X6	Y6	Z6	X7	Y7	Z7	X8	Y8	Z8	X9	Y9	Z9	X10	Y10	Z10	X11	Y11	Z11	X12	Y12	Z12	X13	Y13	Z13	X14	Y14	Z14	X15	Y15	Z15	X16	Y16	Z16	X17	Y17	Z17	X18	Y18	Z18	X19	Y19	Z19	X20	Y20	Z20	X21	Y21	Z21	X22	Y22	Z22	X23	Y23	Z23	X24	Y24	Z24	X25	Y25	Z25	X26	Y26	Z26	X27	Y27	Z27	X28	Y28	Z28	X29	Y29	Z29	X30	Y30	Z30	X31	Y31	Z31	X32	Y32	Z32	X33	Y33	Z33	X34	Y34	Z34	X35	Y35	Z35	X36	Y36	Z36	X37	Y37	Z37	X38	Y38	Z38	X39	Y39	Z39	X40	Y40	Z40	X41	Y41	Z41	X42	Y42	Z42	X43	Y43	Z43	X44	Y44	Z44	X45	Y45	Z45	X46	Y46	Z46	X47	Y47	Z47	X48	Y48	Z48	X49	Y49	Z49	X50	Y50	Z50	X51	Y51	Z51	X52	Y52	Z52	X53	Y53	Z53	X54	Y54	Z54	X55	Y55	Z55	X56	Y56	Z56	X57	Y57	Z57	X58	Y58	Z58	X59	Y59	Z59	X60	Y60	Z60	X61	Y61	Z61	X62	Y62	Z62	X63	Y63	Z63	X64	Y64	Z64	X65	Y65	Z65	X66	Y66	Z66	X67	Y67	Z67	X68	Y68	Z68	X69	Y69	Z69	X70	Y70	Z70	X71	Y71	Z71	X72	Y72	Z72	X73	Y73	Z73	X74	Y74	Z74	X75	Y75	Z75	X76	Y76	Z76	X77	Y77	Z77	X78	Y78	Z78	X79	Y79	Z79	X80	Y80	Z80	X81	Y81	Z81	X82	Y82	Z82	X83	Y83	Z83	X84	Y84	Z84	X85	Y85	Z85	X86	Y86	Z86	X87	Y87	Z87	X88	Y88	Z88	X89	Y89	Z89	X90	Y90	Z90	X91	Y91	Z91	X92	Y92	Z92	X93	Y93	Z93	X94	Y94	Z94	X95	Y95	Z95	X96	Y96	Z96	X97	Y97	Z97	X98	Y98	Z98	X99	Y99	Z99	X100	Y100	Z100	X101	Y101	Z101	X102	Y102	Z102	X103	Y103	Z103	X104	Y104	Z104	X105	Y105	Z105	X106	Y106	Z106	X107	Y107	Z107	X108	Y108	Z108	X109	Y109	Z109	X110	Y110	Z110	X111	Y111	Z111	X112	Y112	Z112	X113	Y113	Z113	X114	Y114	Z114	X115	Y115	Z115	X116	Y116	Z116	X117	Y117	Z117	X118	Y118	Z118	X119	Y119	Z119	X120	Y120	Z120	X121	Y121	Z121	X122	Y122	Z122	X123	Y123	Z123	X124	Y124	Z124	X125	Y125	Z125	X126	Y126	Z126	X127	Y127	Z127	X128	Y128	Z128	X129	Y129	Z129	
46	0.383333																																											-5.424983	971.081238	-12.145071																																																																												-34.470551	1843.208130	-18.901981	26.443947	1794.758911	72.644684	-100.717636	1789.438110	53.209682	66.497749	1733.967896	-43.866055	-89.708214	1716.643433	-76.087936	-6.662550	1553.294922	-100.587189	-0.236454	1374.816040	-129.585815	-10.401882	1484.050171	75.138603	-3.694502	1347.902710	118.300995	143.474091	1501.228149	-111.481842	126.972939	1506.576416	28.112247	238.409195	1356.272949	-32.479836	263.213531	1168.557861	-6.289185	237.671173	1221.217773	-65.981300	260.119720	1054.986572	55.183437	262.947876	927.062927	39.654934	209.131302	934.339661	104.539063	275.351898	872.876770	97.600899	256.381683	889.060974	123.927597	-168.852814	1501.240356	-109.617035	-155.963348	1508.871826	8.477210	-257.925964	1362.209106	-50.794502	-293.904999	1168.042969	-51.291756	-240.032898	1207.888550	-105.660927	-303.318054	1048.958862	-10.856617	-287.230804	920.285889	-9.252676	-261.282043	945.711365	64.785126	-308.462067	866.816772	46.545021	-297.449493	873.210815	85.889473	119.159088	1090.089966	90.653053	185.633499	981.986755	-18.028748	118.868256	1171.930908	-95.219643	183.894348	662.685059	-14.553403	176.056732	549.441406	-12.497221	114.349434	629.906433	51.134308	196.330643	332.878510	-92.768318	179.507919	124.677399	-134.640213	129.117920	68.596886	-191.170486	207.993851	79.273682	42.720089	126.816849	85.538300	51.944805	163.501358	83.379311	96.556908	-140.702576	1093.121460	91.092331	-201.061234	1011.643555	-59.909935	-116.265030	1157.411621	-111.456757	-135.784409	752.966248	68.368263	-185.314285	565.753601	-18.827009	-160.709091	650.225159	44.396210	-198.668289	413.181793	-91.819214	-179.003494	127.579620	-146.226746	-116.364708	76.098793	-194.407639	-204.378571	76.750206	27.309153	-124.396233	75.924347	43.092747	-178.415985	78.985802	83.098877				-5.219812	970.662842	-19.443098																																																																																																																																				
47	0.391667																																											-5.347960	971.100098	-12.081358																																																																												-34.453999	1843.234253	-18.716394	26.465036	1794.719727	72.826210	-100.676598	1789.499512	53.445820	66.512596	1733.936890	-43.666004	-89.674919	1716.736816	-75.932396	-6.610334	1553.383667	-100.424744	-0.218737	1374.873047	-129.514465	-10.265314	1484.102783	75.304985	-3.509076	1347.934937	118.451195	143.494263	1501.256104	-111.371193	127.173370	1506.715942	28.312817	238.436157	1356.253418	-32.417156	263.249664	1168.540527	-6.247335	237.703629	1221.242065	-65.924538	260.168396	1054.966431	55.227676	262.974091	927.034058	39.708370	208.793884	934.036743	104.255615	275.339478	872.816223	97.615845	256.511139	889.143250	124.002716	-168.810104	1501.346558	-109.470032	-155.823624	1508.942993	8.739097	-257.800903	1362.221191	-50.623409	-293.772156	1168.093262	-51.227829	-239.924698	1207.964844	-105.590027	-303.139465	1048.983032	-10.745031	-287.000916	920.378296	-9.223158	-260.975616	945.723877	64.876808	-308.175995	866.811401	46.636463	-297.022308	873.157593	85.916077	119.216629	1090.069336	90.677925	185.613754	981.945435	-18.086313	118.876617	1171.957520	-95.202927	183.903778	662.618225	-14.541821	176.067490	549.393555	-12.461449	114.441910	629.886353	51.235401	196.348145	332.824127	-92.730087	179.554321	124.652855	-134.629517	129.194366	68.659088	-191.170685	208.057526	79.297119	42.721977	126.913589	85.568863	51.935703	163.563004	83.397995	96.553040	-140.550659	1093.177856	91.155258	-201.041962	1011.722229	-59.947704	-116.252388	1157.452881	-111.412743	-135.752655	752.942383	68.399353	-185.213943	565.788208	-18.853230	-160.599625	650.252869	44.382473	-198.574829	413.192108	-91.864258	-178.948563	127.649940	-146.242233	-116.256622	76.148781	-194.431458	-204.317261	76.801216	27.327040	-124.290474	76.014816	43.114731	-178.351334	79.018845	83.123985				-5.211699	970.705383	-19.415834																																																																																																																																				
48	0.400000																																											-5.404900	971.122253	-12.166158																																																																												-34.427746	1843.263428	-18.521585	26.470020	1794.696167	72.988014	-100.561874	1789.563477	53.686081	66.515045	1733.939941	-43.514198	-89.632736	1716.771362	-75.758064	-6.537493	1553.418945	-100.264870	-0.203009	1374.897339	-129.363525	-10.124063	1484.168213	75.471130	-3.392307	1347.971436	118.566917	143.527512	1501.314819	-111.258194	127.063370	1506.560059	28.338938	238.470184	1356.248291	-32.372120	263.260956	1168.506836	-6.235636	237.749878	1221.255859	-65.873642	260.164764	1054.941772	55.236702	262.956360	927.002563	39.695202	208.771820	934.046936	104.235817	275.359253	872.784241	97.623138	255.968887	888.563293	123.676674	-168.761795	1501.425171	-109.310501	-155.693466	1509.047119	8.978976	-257.743042	1362.287720	-50.461384	-293.658295	1168.089600	-51.131565	-239.773865	1207.981934	-105.485443	-302.948303	1049.017700	-10.630292	-286.736755	920.385925	-9.154084	-260.732147	945.768311	64.950424	-307.922821	866.792969	46.734055	-297.317749	873.435913	86.340569	119.242821	1090.065063	90.614738	185.621674	981.882019	-18.127445	118.919037	1171.953491	-95.197968	183.915909	662.574280	-14.540777	176.070679	549.339905	-12.459038	114.483780	629.844727	51.257313	196.401199	332.791992	-92.708427	179.538818	124.617401	-134.632126	129.272598	68.695839	-191.164963	208.087448	79.305412	42.708862	126.952362	85.577721	51.936989	163.618805	83.416985	96.553062	-140.479172	1093.230469	91.195854	-200.978424	1011.772339	-59.962032	-116.202263	1157.452026	-111.372047	-135.687256	752.982239	68.390953	-185.177734	565.862183	-18.883991	-160.533142	650.298401	44.359962	-198.514877	413.234833	-91.905151	-178.867203	127.702599	-146.299484	-116.180260	76.192032	-194.456421	-204.261383	76.857521	27.315109	-124.245483	76.065514	43.135254	-178.269791	79.096512	83.127243				-5.209653	970.738831	-19.398499																																																																																																																																				
49	0.408333																																											-5.339637	971.179565	-12.087838																																																																												-34.436466	1843.305908	-18.308023	26.440285	1794.708618	73.124168	-100.577385	1789.601196	53.862900	66.632515	1734.192749	-43.293842	-89.628975	1716.795288	-75.571259	-6.491662	1553.450439	-100.106834	-0.156696	1374.913574	-129.281464	-10.054650	1484.237061	75.608841	-2.815942	1348.411865	118.992554	143.523636	1501.354004	-111.154457	127.439034	1506.953369	28.629490	238.435165	1356.244019	-32.339447	263.245514	1168.496216	-6.247037	237.778625	1221.310425	-65.850441	260.173035	1054.967285	55.255676	262.978333	927.016357	39.708565	208.830200	934.152405	104.324074	275.342804	872.776367	97.611649	256.599976	889.219238	124.053764	-168.723801	1501.432739	-109.115471	-155.626389	1509.119507	9.208629	-257.719025	1362.341187	-50.335045	-293.536621	1168.066284	-51.023655	-239.697998	1207.979370	-105.377655	-302.818390	1049.019287	-10.542326	-286.516968	920.346313	-9.084505	-260.539337	945.844604	65.067108	-307.676788	866.779602	46.821472	-297.258362	873.593506	86.549370	119.234398	1090.095215	90.559250	185.601105	981.792236	-18.179914	118.953842	1171.960327	-95.219315	183.905029	662.586060	-14.539892	176.060989	549.341248	-12.439814	114.503090	629.856445	51.323448	196.380310	332.764557	-92.704025	179.538452	124.615822	-134.680603	129.316559	68.722702	-191.153732	208.096069	79.307175	42.692982	126.934631	85.581245	51.930672	163.642487	83.449326	96.555710	-140.478104	1093.305054	91.240921	-200.914505	1011.775085	-59.921696	-116.177193	1157.476563	-111.303085	-135.665604	753.049255	68.400978	-185.138779	565.909851	-18.921513	-160.488022	650.403992	44.354935	-198.441742	413.247467	-91.945183	-178.815369	127.712753	-146.292542	-116.142334	76.231682	-194.461029	-204.261826	76.936562	27.326357	-124.237518	76.114571	43.140709	-178.254120	79.134262	83.123047				-5.246708	970.785400	-19.375378																																																																																																																																				
